# xmcd
#
# Track frame offsets: 
#        150
#        880
#        27072
#        56332
#        81051
#        129029
#        161106
#        189000
#        216851
#        247733
#        286738
#
# Disc length: 4084 seconds
#
# Revision: 0
# Processed by: cddbd v1.5.2PL0 Copyright (c) Steve Scherf et al.
# Submitted via: ExactAudioCopy v1.3
#
DISCID=720ff20b
DTITLE=Bob Stroger - In The House - Live At Lucerne
DYEAR=2002
DGENRE=Blues
TTITLE0=Introduction
TTITLE1=Talk To Me, Mama
TTITLE2=Stranded In St. Louis
TTITLE3=Lovin' Man
TTITLE4=Extension
TTITLE5=Gonna Make Some Changes
TTITLE6=Loan Me Train Fare
TTITLE7=Heads Up
TTITLE8=Thinking And Drinking
TTITLE9=Going To Chicago
TTITLE10=Keep Your Hands Off Her
EXTD=
EXTT0=
EXTT1=
EXTT2=
EXTT3=
EXTT4=
EXTT5=
EXTT6=
EXTT7=
EXTT8=
EXTT9=
EXTT10=
PLAYORDER=
